        <svg xmlns:mydata="http://www.w3.org/2000/svg" mydata:contrastcolor="151f42" mydata:template="Contrast" mydata:presentation="2.5" mydata:layouttype="undefined" mydata:specialfontid="undefined" mydata:id1="385" mydata:id2="027" mydata:companyname="htc by soluction" mydata:companytagline="sua melhor solução" version="1.1" xmlns="http://www.w3.org/2000/svg" xmlns:xlink="http://www.w3.org/1999/xlink" style="height: 208px;" viewBox="0 0 550 470"><defs><linearGradient x1="65" y1="235" x2="485" y2="235" gradientUnits="userSpaceOnUse" id="color-13325878058"><stop offset="0" stop-color="#4568dc"></stop><stop offset="1" stop-color="#b06ab3"></stop></linearGradient></defs><g fill="url(#color-13325878058)" fill-rule="none" stroke="none" stroke-width="1" stroke-linecap="butt" stroke-linejoin="miter" stroke-miterlimit="10" stroke-dasharray="" stroke-dashoffset="0" font-family="none" font-weight="none" font-size="none" text-anchor="none" style="mix-blend-mode: normal"><g data-paper-data="{&quot;isGlobalGroup&quot;:true,&quot;bounds&quot;:{&quot;x&quot;:65,&quot;y&quot;:119.98367862504487,&quot;width&quot;:420,&quot;height&quot;:230.03264274991028}}"><g data-paper-data="{&quot;isSecondaryText&quot;:true}" fill-rule="nonzero" id="element-id-40306"><path d="M84.84874,338.21821c0,0.24904 0.08301,0.45916 0.24904,0.63037c0.16602,0.17121 0.38263,0.31908 0.64983,0.4436c0.2672,0.12452 0.56941,0.23347 0.90665,0.32686c0.33724,0.09339 0.67707,0.18937 1.01949,0.28795c0.54996,0.16602 1.04933,0.34243 1.49811,0.5292c0.44878,0.18678 0.83272,0.40987 1.15179,0.66929c0.31908,0.25941 0.56552,0.56682 0.73933,0.92221c0.17381,0.3554 0.26071,0.78213 0.26071,1.2802c0,0.54477 -0.10766,1.03506 -0.32297,1.47087c-0.21531,0.43581 -0.52531,0.80677 -0.93,1.11288c-0.40468,0.30611 -0.89368,0.54088 -1.46698,0.70431c-0.5733,0.16343 -1.21794,0.24515 -1.93393,0.24515c-0.36837,0 -0.73933,-0.02205 -1.11288,-0.06615c-0.37355,-0.0441 -0.73414,-0.10766 -1.08175,-0.19067c-0.34761,-0.08301 -0.67447,-0.18418 -0.98058,-0.30351c-0.30611,-0.11933 -0.5733,-0.25422 -0.80159,-0.40468c-0.22828,-0.15046 -0.40728,-0.31519 -0.53699,-0.49418c-0.12971,-0.179 -0.19456,-0.36966 -0.19456,-0.57201c0,-0.12971 0.02724,-0.25682 0.08172,-0.38134c0.05448,-0.12452 0.12452,-0.23736 0.21012,-0.33853c0.08561,-0.10117 0.18159,-0.18289 0.28795,-0.24515c0.10636,-0.06226 0.21142,-0.09339 0.31519,-0.09339c0.09339,0 0.18418,0.01556 0.27238,0.04669c0.0882,0.03113 0.1777,0.06874 0.26849,0.11284c0.09079,0.0441 0.18418,0.09209 0.28017,0.14397c0.09598,0.05188 0.19845,0.09858 0.3074,0.14008c0.35799,0.16084 0.76008,0.30611 1.20627,0.43581c0.44619,0.12971 0.91313,0.19456 1.40083,0.19456c0.2646,0 0.51494,-0.02464 0.751,-0.07393c0.23607,-0.04929 0.4436,-0.12452 0.62259,-0.22569c0.179,-0.10117 0.32038,-0.23217 0.42414,-0.39301c0.10377,-0.16084 0.15565,-0.3554 0.15565,-0.58368c0,-0.17121 -0.03113,-0.32427 -0.09339,-0.45916c-0.06226,-0.13489 -0.14787,-0.25293 -0.25682,-0.3541c-0.10895,-0.10117 -0.23607,-0.18937 -0.38134,-0.2646c-0.14527,-0.07523 -0.29833,-0.14138 -0.45916,-0.19845l-0.35021,-0.12452c-0.06745,-0.02075 -0.1323,-0.0428 -0.19456,-0.06615c-0.06226,-0.02335 -0.12971,-0.0454 -0.20234,-0.06615l-0.40468,-0.11674c-0.0882,-0.02075 -0.16343,-0.04021 -0.22569,-0.05837c-0.06226,-0.01816 -0.11803,-0.03632 -0.16732,-0.05448c-0.04929,-0.01816 -0.09728,-0.03632 -0.14397,-0.05448c-0.04669,-0.01816 -0.10117,-0.03761 -0.16343,-0.05837l-0.73155,-0.25682c-0.47213,-0.17121 -0.87682,-0.35021 -1.21405,-0.53699c-0.33724,-0.18678 -0.61222,-0.3969 -0.82493,-0.63037c-0.21272,-0.23347 -0.36966,-0.49937 -0.47083,-0.7977c-0.10117,-0.29833 -0.15176,-0.64464 -0.15176,-1.03895c0,-0.51883 0.10766,-0.98836 0.32297,-1.40861c0.21531,-0.42025 0.52401,-0.77824 0.9261,-1.07397c0.40209,-0.29573 0.88979,-0.52401 1.46309,-0.68485c0.5733,-0.16084 1.21794,-0.24125 1.93393,-0.24125c0.25941,0 0.54217,0.01686 0.84828,0.05059c0.30611,0.03372 0.61222,0.08431 0.91832,0.15176c0.30611,0.06745 0.60054,0.15435 0.8833,0.26071c0.28276,0.10636 0.53309,0.23088 0.751,0.37355c0.21791,0.14268 0.39301,0.30481 0.52531,0.4864c0.1323,0.18159 0.19845,0.38393 0.19845,0.60703c0,0.12971 -0.02464,0.24904 -0.07393,0.35799c-0.04929,0.10895 -0.11544,0.20234 -0.19845,0.28017c-0.08301,0.07782 -0.18029,0.13879 -0.29184,0.18289c-0.11155,0.0441 -0.22699,0.06615 -0.34632,0.06615c-0.15565,0 -0.29833,-0.03372 -0.42803,-0.10117c-0.24385,-0.12452 -0.47083,-0.23088 -0.68096,-0.31908c-0.21012,-0.0882 -0.41895,-0.16084 -0.62648,-0.21791c-0.20753,-0.05707 -0.42155,-0.09858 -0.64205,-0.12452c-0.2205,-0.02594 -0.46305,-0.03891 -0.72765,-0.03891c-0.24904,0 -0.49418,0.02205 -0.73544,0.06615c-0.24125,0.0441 -0.45657,0.11414 -0.64594,0.21012c-0.18937,0.09598 -0.34243,0.2192 -0.45916,0.36966c-0.11674,0.15046 -0.1751,0.33464 -0.1751,0.55255z" data-paper-data="{&quot;glyphName&quot;:&quot;S&quot;,&quot;glyphIndex&quot;:0,&quot;firstGlyphOfWord&quot;:true,&quot;word&quot;:1}" id="element-id-76423"></path><path d="M111.4837,336.77847c0,-0.21272 0.03761,-0.41117 0.11284,-0.59535c0.07523,-0.18418 0.1777,-0.34502 0.3074,-0.48251c0.12971,-0.13749 0.28146,-0.24515 0.45527,-0.32297c0.17381,-0.07782 0.36188,-0.11674 0.56422,-0.11674c0.20234,0 0.39042,0.03891 0.56422,0.11674c0.17381,0.07782 0.32686,0.18548 0.45916,0.32297c0.1323,0.13749 0.23607,0.29833 0.3113,0.48251c0.07523,0.18418 0.11284,0.38263 0.11284,0.59535v5.96131c0,0.68485 -0.12063,1.2828 -0.36188,1.79384c-0.24125,0.51104 -0.57849,0.93778 -1.01171,1.2802c-0.43322,0.34243 -0.94816,0.59924 -1.54481,0.77046c-0.59665,0.17121 -1.25037,0.25682 -1.96116,0.25682c-0.70042,0 -1.34765,-0.08431 -1.94171,-0.25293c-0.59406,-0.16862 -1.10769,-0.42155 -1.54091,-0.75878c-0.43322,-0.33724 -0.77175,-0.76267 -1.0156,-1.27631c-0.24385,-0.51364 -0.36577,-1.11807 -0.36577,-1.8133v-5.96131c0,-0.21272 0.03761,-0.41117 0.11284,-0.59535c0.07523,-0.18418 0.1777,-0.34502 0.3074,-0.48251c0.12971,-0.13749 0.28146,-0.24515 0.45527,-0.32297c0.17381,-0.07782 0.36188,-0.11674 0.56422,-0.11674c0.20234,0 0.39042,0.03891 0.56422,0.11674c0.17381,0.07782 0.32686,0.18548 0.45916,0.32297c0.1323,0.13749 0.23607,0.29833 0.3113,0.48251c0.07523,0.18418 0.11284,0.38263 0.11284,0.59535l0.00778,5.91462c0,0.37355 0.05707,0.69523 0.17121,0.96502c0.11414,0.26979 0.2633,0.49029 0.44749,0.6615c0.18418,0.17121 0.39431,0.29833 0.63037,0.38134c0.23607,0.08301 0.47602,0.12452 0.71987,0.12452c0.24904,0 0.49159,-0.04151 0.72765,-0.12452c0.23607,-0.08301 0.44749,-0.21012 0.63427,-0.38134c0.18678,-0.17121 0.33853,-0.39171 0.45527,-0.6615c0.11674,-0.26979 0.1751,-0.59146 0.1751,-0.96502z" data-paper-data="{&quot;glyphName&quot;:&quot;U&quot;,&quot;glyphIndex&quot;:1,&quot;word&quot;:1}" id="element-id-48557"></path><path d="M132.54447,337.39328l-1.71213,5.00408h3.45538l-1.70434,-5.00408zM137.61859,344.21066c0.03632,0.09339 0.07523,0.19067 0.11674,0.29184c0.04151,0.10117 0.08042,0.20364 0.11674,0.3074c0.03632,0.10377 0.06615,0.20364 0.0895,0.29962c0.02335,0.09598 0.03502,0.18289 0.03502,0.26071c0,0.19197 -0.03502,0.36188 -0.10506,0.50975c-0.07004,0.14787 -0.16473,0.27238 -0.28406,0.37355c-0.11933,0.10117 -0.25812,0.179 -0.41636,0.23347c-0.15824,0.05448 -0.32556,0.08172 -0.50196,0.08172c-0.20234,0 -0.37615,-0.02854 -0.52142,-0.08561c-0.14527,-0.05707 -0.27498,-0.14787 -0.38912,-0.27238c-0.11414,-0.12452 -0.2192,-0.28665 -0.31519,-0.4864c-0.09598,-0.19975 -0.19845,-0.44489 -0.3074,-0.73544l-0.37355,-0.98836h-4.40484l-0.31908,0.98836c-0.09339,0.29573 -0.18807,0.54477 -0.28406,0.74711c-0.09598,0.20234 -0.20234,0.36448 -0.31908,0.4864c-0.11674,0.12192 -0.25033,0.21012 -0.40079,0.2646c-0.15046,0.05448 -0.32686,0.08172 -0.5292,0.08172c-0.1764,0 -0.34372,-0.02724 -0.50196,-0.08172c-0.15824,-0.05448 -0.29703,-0.1323 -0.41636,-0.23347c-0.11933,-0.10117 -0.21402,-0.22569 -0.28406,-0.37355c-0.07004,-0.14787 -0.10506,-0.31778 -0.10506,-0.50975c0,-0.07782 0.01167,-0.16473 0.03502,-0.26071c0.02335,-0.09598 0.05318,-0.19586 0.0895,-0.29962c0.03632,-0.10377 0.07523,-0.20623 0.11674,-0.3074c0.04151,-0.10117 0.08042,-0.19845 0.11674,-0.29184l2.09346,-5.6578c0.19715,-0.5292 0.38523,-0.99744 0.56422,-1.40472c0.179,-0.40728 0.37615,-0.751 0.59146,-1.03117c0.21531,-0.28017 0.46305,-0.49159 0.74322,-0.63427c0.28017,-0.14268 0.62,-0.21402 1.01949,-0.21402c0.37355,0 0.69263,0.05577 0.95723,0.16732c0.2646,0.11155 0.50326,0.29573 0.71598,0.55255c0.21272,0.25682 0.41506,0.59535 0.60703,1.0156c0.19197,0.42025 0.40468,0.93648 0.63816,1.5487z" data-paper-data="{&quot;glyphName&quot;:&quot;A&quot;,&quot;glyphIndex&quot;:2,&quot;lastGlyphOfWord&quot;:true,&quot;word&quot;:1}" id="element-id-15973"></path><path d="M177.04092,337.98474c-0.46176,1.14142 -0.87422,2.15832 -1.2374,3.0507c-0.15565,0.38393 -0.30611,0.75749 -0.45138,1.12066c-0.14527,0.36318 -0.27628,0.68744 -0.39301,0.9728c-0.11674,0.28535 -0.21142,0.51623 -0.28406,0.69263l-0.10117,0.25682c-0.10895,0.2646 -0.22439,0.51623 -0.34632,0.75489c-0.12192,0.23866 -0.26071,0.44749 -0.41636,0.62648c-0.15565,0.179 -0.33075,0.32167 -0.52531,0.42803c-0.19456,0.10636 -0.41895,0.15954 -0.67318,0.15954c-0.23347,0 -0.43841,-0.04021 -0.61481,-0.12063c-0.1764,-0.08042 -0.33853,-0.20234 -0.4864,-0.36577c-0.14787,-0.16343 -0.28665,-0.36837 -0.41636,-0.61481c-0.12971,-0.24644 -0.25941,-0.53309 -0.38912,-0.85995l-2.45145,-6.07027v7.4244c0,0.15565 -0.02983,0.30351 -0.0895,0.4436c-0.05967,0.14008 -0.14138,0.26071 -0.24515,0.36188c-0.10377,0.10117 -0.22569,0.18159 -0.36577,0.24125c-0.14008,0.05967 -0.28795,0.0895 -0.4436,0.0895c-0.15565,0 -0.30351,-0.02983 -0.4436,-0.0895c-0.14008,-0.05967 -0.26071,-0.14008 -0.36188,-0.24125c-0.10117,-0.10117 -0.18159,-0.2218 -0.24125,-0.36188c-0.05967,-0.14008 -0.0895,-0.28795 -0.0895,-0.4436v-7.18315c0,-0.45138 0.02335,-0.86255 0.07004,-1.23351c0.04669,-0.37096 0.14138,-0.68615 0.28406,-0.94556c0.14268,-0.25941 0.34243,-0.46046 0.59924,-0.60314c0.25682,-0.14268 0.59535,-0.21402 1.0156,-0.21402c0.30092,0 0.56422,0.05188 0.78991,0.15565c0.22569,0.10377 0.43581,0.27109 0.63037,0.50196c0.19456,0.23088 0.38393,0.5305 0.56811,0.89887c0.18418,0.36837 0.38523,0.81456 0.60314,1.33857l2.0779,5.01964h0.06226l2.10125,-5.01964c0.18678,-0.44619 0.36966,-0.84828 0.54866,-1.20627c0.179,-0.35799 0.36966,-0.6615 0.57201,-0.91054c0.20234,-0.24904 0.42284,-0.441 0.6615,-0.5759c0.23866,-0.13489 0.51104,-0.20234 0.81715,-0.20234c0.33205,0 0.62129,0.04929 0.86774,0.14787c0.24644,0.09858 0.44878,0.25682 0.60703,0.47473c0.15824,0.21791 0.27628,0.49937 0.3541,0.84439c0.07782,0.34502 0.11674,0.76138 0.11674,1.24907v7.46332c0,0.15565 -0.02983,0.30351 -0.0895,0.4436c-0.05967,0.14008 -0.14138,0.26071 -0.24515,0.36188c-0.10377,0.10117 -0.22569,0.18159 -0.36577,0.24125c-0.14008,0.05967 -0.28795,0.0895 -0.4436,0.0895c-0.15565,0 -0.30351,-0.02983 -0.4436,-0.0895c-0.14008,-0.05967 -0.26071,-0.14008 -0.36188,-0.24125c-0.10117,-0.10117 -0.18159,-0.2218 -0.24125,-0.36188c-0.05967,-0.14008 -0.0895,-0.28795 -0.0895,-0.4436z" data-paper-data="{&quot;glyphName&quot;:&quot;M&quot;,&quot;glyphIndex&quot;:3,&quot;firstGlyphOfWord&quot;:true,&quot;word&quot;:2}" id="element-id-5645"></path><path d="M195.89199,346.56872c-0.2646,0 -0.4864,-0.05448 -0.66539,-0.16343c-0.179,-0.10895 -0.32297,-0.25033 -0.43192,-0.42414c-0.10895,-0.17381 -0.18678,-0.36966 -0.23347,-0.58757c-0.04669,-0.21791 -0.07004,-0.43581 -0.07004,-0.65372v-7.41662c0,-0.29573 0.01816,-0.56941 0.05448,-0.82104c0.03632,-0.25163 0.11674,-0.46824 0.24125,-0.64983c0.12452,-0.18159 0.30611,-0.32427 0.54477,-0.42803c0.23866,-0.10377 0.56033,-0.15565 0.96502,-0.15565h4.9963c0.15046,0 0.29184,0.02724 0.42414,0.08172c0.1323,0.05448 0.24774,0.12711 0.34632,0.21791c0.09858,0.09079 0.1764,0.19845 0.23347,0.32297c0.05707,0.12452 0.08561,0.25682 0.08561,0.3969c0,0.14008 -0.02854,0.27109 -0.08561,0.39301c-0.05707,0.12192 -0.13489,0.22828 -0.23347,0.31908c-0.09858,0.09079 -0.21402,0.16213 -0.34632,0.21402c-0.1323,0.05188 -0.27368,0.07782 -0.42414,0.07782h-4.00793v2.5215h3.65773c0.15046,0 0.29184,0.02594 0.42414,0.07782c0.1323,0.05188 0.24774,0.12452 0.34632,0.21791c0.09858,0.09339 0.1764,0.20105 0.23347,0.32297c0.05707,0.12192 0.08561,0.25293 0.08561,0.39301c0,0.14008 -0.02854,0.27109 -0.08561,0.39301c-0.05707,0.12192 -0.13489,0.22828 -0.23347,0.31908c-0.09858,0.09079 -0.21402,0.16213 -0.34632,0.21402c-0.1323,0.05188 -0.27368,0.07782 -0.42414,0.07782h-3.65773v2.72384h4.20249c0.14008,0 0.27109,0.02594 0.39301,0.07782c0.12192,0.05188 0.22958,0.12452 0.32297,0.21791c0.09339,0.09339 0.16602,0.20105 0.21791,0.32297c0.05188,0.12192 0.07782,0.25293 0.07782,0.39301c0,0.14008 -0.02594,0.27109 -0.07782,0.39301c-0.05188,0.12192 -0.12452,0.22828 -0.21791,0.31908c-0.09339,0.09079 -0.20105,0.16213 -0.32297,0.21402c-0.12192,0.05188 -0.25293,0.07782 -0.39301,0.07782z" data-paper-data="{&quot;glyphName&quot;:&quot;E&quot;,&quot;glyphIndex&quot;:4,&quot;word&quot;:2}" id="element-id-79621"></path><path d="M221.88445,344.4986c0.14008,0 0.27368,0.02724 0.40079,0.08172c0.12711,0.05448 0.23736,0.12841 0.33075,0.2218c0.09339,0.09339 0.16732,0.20364 0.2218,0.33075c0.05448,0.12711 0.08172,0.26071 0.08172,0.40079c0,0.14008 -0.02724,0.27368 -0.08172,0.40079c-0.05448,0.12711 -0.12841,0.23736 -0.2218,0.33075c-0.09339,0.09339 -0.20364,0.16732 -0.33075,0.2218c-0.12711,0.05448 -0.26071,0.08172 -0.40079,0.08172h-5.33094c-0.28017,0 -0.51364,-0.06096 -0.70042,-0.18289c-0.18678,-0.12192 -0.33594,-0.28276 -0.44749,-0.48251c-0.11155,-0.19975 -0.18937,-0.42673 -0.23347,-0.68096c-0.0441,-0.25422 -0.06615,-0.51364 -0.06615,-0.77824v-7.66566c0,-0.21272 0.03761,-0.41117 0.11284,-0.59535c0.07523,-0.18418 0.1777,-0.34502 0.3074,-0.48251c0.12971,-0.13749 0.28146,-0.24515 0.45527,-0.32297c0.17381,-0.07782 0.36188,-0.11674 0.56422,-0.11674c0.20234,0 0.39042,0.03891 0.56422,0.11674c0.17381,0.07782 0.32686,0.18548 0.45916,0.32297c0.1323,0.13749 0.23607,0.29833 0.3113,0.48251c0.07523,0.18418 0.11284,0.38263 0.11284,0.59535l0.00778,7.72014z" data-paper-data="{&quot;glyphName&quot;:&quot;L&quot;,&quot;glyphIndex&quot;:5,&quot;word&quot;:2}" id="element-id-56523"></path><path d="M242.32833,336.77847c0,-0.21272 0.03891,-0.41117 0.11674,-0.59535c0.07782,-0.18418 0.18159,-0.34502 0.3113,-0.48251c0.12971,-0.13749 0.28146,-0.24515 0.45527,-0.32297c0.17381,-0.07782 0.36188,-0.11674 0.56422,-0.11674c0.20234,0 0.39042,0.03891 0.56422,0.11674c0.17381,0.07782 0.32686,0.18548 0.45916,0.32297c0.1323,0.13749 0.23607,0.29833 0.3113,0.48251c0.07523,0.18418 0.11284,0.38263 0.11284,0.59535v8.27269c0,0.21272 -0.03761,0.41117 -0.11284,0.59535c-0.07523,0.18418 -0.179,0.34502 -0.3113,0.48251c-0.1323,0.13749 -0.28535,0.24515 -0.45916,0.32297c-0.17381,0.07782 -0.36188,0.11674 -0.56422,0.11674c-0.20234,0 -0.39042,-0.03891 -0.56422,-0.11674c-0.17381,-0.07782 -0.32556,-0.18548 -0.45527,-0.32297c-0.12971,-0.13749 -0.23217,-0.29833 -0.3074,-0.48251c-0.07523,-0.18418 -0.11284,-0.38263 -0.11284,-0.59535l-0.00778,-3.21413h-4.00793v3.21413c0,0.21272 -0.03761,0.41117 -0.11284,0.59535c-0.07523,0.18418 -0.179,0.34502 -0.3113,0.48251c-0.1323,0.13749 -0.28535,0.24515 -0.45916,0.32297c-0.17381,0.07782 -0.36188,0.11674 -0.56422,0.11674c-0.20234,0 -0.39042,-0.03891 -0.56422,-0.11674c-0.17381,-0.07782 -0.32556,-0.18548 -0.45527,-0.32297c-0.12971,-0.13749 -0.23217,-0.29833 -0.3074,-0.48251c-0.07523,-0.18418 -0.11284,-0.38263 -0.11284,-0.59535v-8.27269c0,-0.21272 0.03761,-0.41117 0.11284,-0.59535c0.07523,-0.18418 0.1777,-0.34502 0.3074,-0.48251c0.12971,-0.13749 0.28146,-0.24515 0.45527,-0.32297c0.17381,-0.07782 0.36188,-0.11674 0.56422,-0.11674c0.20234,0 0.39042,0.03891 0.56422,0.11674c0.17381,0.07782 0.32686,0.18548 0.45916,0.32297c0.1323,0.13749 0.23607,0.29833 0.3113,0.48251c0.07523,0.18418 0.11284,0.38263 0.11284,0.59535v2.84057h4.00793z" data-paper-data="{&quot;glyphName&quot;:&quot;H&quot;,&quot;glyphIndex&quot;:6,&quot;word&quot;:2}" id="element-id-64170"></path><path d="M261.93307,340.92648c0,1.28669 0.20494,2.25819 0.61481,2.91451c0.40987,0.65632 1.05062,0.98447 1.92225,0.98447c0.85606,0 1.49422,-0.32686 1.91447,-0.98058c0.42025,-0.65372 0.63037,-1.62652 0.63037,-2.9184c0,-0.62259 -0.05059,-1.17644 -0.15176,-1.66154c-0.10117,-0.4851 -0.25552,-0.89368 -0.46305,-1.22573c-0.20753,-0.33205 -0.47083,-0.58498 -0.78991,-0.75878c-0.31908,-0.17381 -0.69912,-0.26071 -1.14012,-0.26071c-0.43581,0 -0.81326,0.0869 -1.13234,0.26071c-0.31908,0.17381 -0.58238,0.42673 -0.78991,0.75878c-0.20753,0.33205 -0.36188,0.74062 -0.46305,1.22573c-0.10117,0.4851 -0.15176,1.03895 -0.15176,1.66154zM258.90572,340.92648c0,-0.85606 0.11544,-1.64727 0.34632,-2.37363c0.23088,-0.72636 0.57719,-1.35154 1.03895,-1.87556c0.46176,-0.52401 1.04025,-0.93389 1.73547,-1.22962c0.69523,-0.29573 1.50978,-0.4436 2.44367,-0.4436c0.90795,0 1.70953,0.14268 2.40476,0.42803c0.69523,0.28535 1.27631,0.68874 1.74326,1.21016c0.46694,0.52142 0.81975,1.14531 1.05841,1.87167c0.23866,0.72636 0.35799,1.53054 0.35799,2.41254c0,0.86644 -0.11674,1.66284 -0.35021,2.3892c-0.23347,0.72636 -0.58368,1.35025 -1.05062,1.87167c-0.46694,0.52142 -1.04803,0.9274 -1.74326,1.21794c-0.69523,0.29054 -1.502,0.43581 -2.42032,0.43581c-0.89757,0 -1.69267,-0.14008 -2.3853,-0.42025c-0.69263,-0.28017 -1.27502,-0.67837 -1.74715,-1.1946c-0.47213,-0.51623 -0.82883,-1.13753 -1.07008,-1.86388c-0.24125,-0.72636 -0.36188,-1.53832 -0.36188,-2.43589z" data-paper-data="{&quot;glyphName&quot;:&quot;O&quot;,&quot;glyphIndex&quot;:7,&quot;word&quot;:2}" id="element-id-35238"></path><path d="M286.88533,345.05115c0,0.21272 -0.03761,0.41117 -0.11284,0.59535c-0.07523,0.18418 -0.179,0.34502 -0.3113,0.48251c-0.1323,0.13749 -0.28535,0.24515 -0.45916,0.32297c-0.17381,0.07782 -0.36188,0.11674 -0.56422,0.11674c-0.20234,0 -0.39042,-0.03891 -0.56422,-0.11674c-0.17381,-0.07782 -0.32556,-0.18548 -0.45527,-0.32297c-0.12971,-0.13749 -0.23217,-0.29833 -0.3074,-0.48251c-0.07523,-0.18418 -0.11284,-0.38263 -0.11284,-0.59535v-8.35829c0,-0.23866 0.04799,-0.44749 0.14397,-0.62648c0.09598,-0.179 0.22439,-0.32816 0.38523,-0.44749c0.16084,-0.11933 0.34891,-0.20883 0.56422,-0.26849c0.21531,-0.05967 0.4423,-0.0895 0.68096,-0.0895h3.12074c0.5759,0 1.12845,0.03761 1.65765,0.11284c0.5292,0.07523 0.99485,0.21661 1.39694,0.42414c0.40209,0.20753 0.72376,0.49548 0.96502,0.86385c0.24125,0.36837 0.36188,0.84828 0.36188,1.43974c0,0.32167 -0.0441,0.62648 -0.1323,0.91443c-0.0882,0.28795 -0.23088,0.54736 -0.42803,0.77824c-0.19715,0.23088 -0.45527,0.42803 -0.77435,0.59146c-0.31908,0.16343 -0.70949,0.28406 -1.17125,0.36188v0.03113c0.33205,0.04151 0.61611,0.10247 0.85217,0.18289c0.23607,0.08042 0.43711,0.18678 0.60314,0.31908c0.16602,0.1323 0.30092,0.29184 0.40468,0.47862c0.10377,0.18678 0.18937,0.40728 0.25682,0.6615c0.06745,0.25422 0.12192,0.54347 0.16343,0.86774c0.04151,0.32427 0.08042,0.69134 0.11674,1.10121c0.01038,0.11414 0.01816,0.22439 0.02335,0.33075c0.00519,0.10636 0.00778,0.21142 0.00778,0.31519c0,0.2231 -0.02075,0.42803 -0.06226,0.61481c-0.04151,0.18678 -0.11414,0.34761 -0.21791,0.48251c-0.10377,0.13489 -0.24644,0.23996 -0.42803,0.31519c-0.18159,0.07523 -0.41506,0.11284 -0.70042,0.11284c-0.25941,0 -0.47602,-0.05967 -0.64983,-0.179c-0.17381,-0.11933 -0.31778,-0.28276 -0.43192,-0.49029c-0.11414,-0.20753 -0.20105,-0.44749 -0.26071,-0.71987c-0.05967,-0.27238 -0.10766,-0.56422 -0.14397,-0.87552c-0.05188,-0.45138 -0.10506,-0.82883 -0.15954,-1.13234c-0.05448,-0.30351 -0.14138,-0.54866 -0.26071,-0.73544c-0.11933,-0.18678 -0.28925,-0.31908 -0.50975,-0.3969c-0.2205,-0.07782 -0.52272,-0.11674 -0.90665,-0.11674h-1.57983zM288.08382,340.10933c0.28017,0 0.56033,-0.01686 0.8405,-0.05059c0.28017,-0.03372 0.53309,-0.10377 0.75878,-0.21012c0.22569,-0.10636 0.40858,-0.26201 0.54866,-0.46694c0.14008,-0.20494 0.21012,-0.47862 0.21012,-0.82104c0,-0.39431 -0.06745,-0.69004 -0.20234,-0.88719c-0.13489,-0.19715 -0.31389,-0.34502 -0.53699,-0.4436c-0.2231,-0.09858 -0.48121,-0.15954 -0.77435,-0.18289c-0.29314,-0.02335 -0.59795,-0.03502 -0.91443,-0.03502h-1.17514v3.09739z" data-paper-data="{&quot;glyphName&quot;:&quot;R&quot;,&quot;glyphIndex&quot;:8,&quot;lastGlyphOfWord&quot;:true,&quot;word&quot;:2}" id="element-id-10889"></path><path d="M322.25535,338.21821c0,0.24904 0.08301,0.45916 0.24904,0.63037c0.16602,0.17121 0.38263,0.31908 0.64983,0.4436c0.2672,0.12452 0.56941,0.23347 0.90665,0.32686c0.33724,0.09339 0.67707,0.18937 1.01949,0.28795c0.54996,0.16602 1.04933,0.34243 1.49811,0.5292c0.44878,0.18678 0.83272,0.40987 1.15179,0.66929c0.31908,0.25941 0.56552,0.56682 0.73933,0.92221c0.17381,0.3554 0.26071,0.78213 0.26071,1.2802c0,0.54477 -0.10766,1.03506 -0.32297,1.47087c-0.21531,0.43581 -0.52531,0.80677 -0.93,1.11288c-0.40468,0.30611 -0.89368,0.54088 -1.46698,0.70431c-0.5733,0.16343 -1.21794,0.24515 -1.93393,0.24515c-0.36837,0 -0.73933,-0.02205 -1.11288,-0.06615c-0.37355,-0.0441 -0.73414,-0.10766 -1.08175,-0.19067c-0.34761,-0.08301 -0.67447,-0.18418 -0.98058,-0.30351c-0.30611,-0.11933 -0.5733,-0.25422 -0.80159,-0.40468c-0.22828,-0.15046 -0.40728,-0.31519 -0.53699,-0.49418c-0.12971,-0.179 -0.19456,-0.36966 -0.19456,-0.57201c0,-0.12971 0.02724,-0.25682 0.08172,-0.38134c0.05448,-0.12452 0.12452,-0.23736 0.21012,-0.33853c0.08561,-0.10117 0.18159,-0.18289 0.28795,-0.24515c0.10636,-0.06226 0.21142,-0.09339 0.31519,-0.09339c0.09339,0 0.18418,0.01556 0.27238,0.04669c0.0882,0.03113 0.1777,0.06874 0.26849,0.11284c0.09079,0.0441 0.18418,0.09209 0.28017,0.14397c0.09598,0.05188 0.19845,0.09858 0.3074,0.14008c0.35799,0.16084 0.76008,0.30611 1.20627,0.43581c0.44619,0.12971 0.91313,0.19456 1.40083,0.19456c0.2646,0 0.51494,-0.02464 0.751,-0.07393c0.23607,-0.04929 0.4436,-0.12452 0.62259,-0.22569c0.179,-0.10117 0.32038,-0.23217 0.42414,-0.39301c0.10377,-0.16084 0.15565,-0.3554 0.15565,-0.58368c0,-0.17121 -0.03113,-0.32427 -0.09339,-0.45916c-0.06226,-0.13489 -0.14787,-0.25293 -0.25682,-0.3541c-0.10895,-0.10117 -0.23607,-0.18937 -0.38134,-0.2646c-0.14527,-0.07523 -0.29833,-0.14138 -0.45916,-0.19845l-0.35021,-0.12452c-0.06745,-0.02075 -0.1323,-0.0428 -0.19456,-0.06615c-0.06226,-0.02335 -0.12971,-0.0454 -0.20234,-0.06615l-0.40468,-0.11674c-0.0882,-0.02075 -0.16343,-0.04021 -0.22569,-0.05837c-0.06226,-0.01816 -0.11803,-0.03632 -0.16732,-0.05448c-0.04929,-0.01816 -0.09728,-0.03632 -0.14397,-0.05448c-0.04669,-0.01816 -0.10117,-0.03761 -0.16343,-0.05837l-0.73155,-0.25682c-0.47213,-0.17121 -0.87682,-0.35021 -1.21405,-0.53699c-0.33724,-0.18678 -0.61222,-0.3969 -0.82493,-0.63037c-0.21272,-0.23347 -0.36966,-0.49937 -0.47083,-0.7977c-0.10117,-0.29833 -0.15176,-0.64464 -0.15176,-1.03895c0,-0.51883 0.10766,-0.98836 0.32297,-1.40861c0.21531,-0.42025 0.52401,-0.77824 0.9261,-1.07397c0.40209,-0.29573 0.88979,-0.52401 1.46309,-0.68485c0.5733,-0.16084 1.21794,-0.24125 1.93393,-0.24125c0.25941,0 0.54217,0.01686 0.84828,0.05059c0.30611,0.03372 0.61222,0.08431 0.91832,0.15176c0.30611,0.06745 0.60054,0.15435 0.8833,0.26071c0.28276,0.10636 0.53309,0.23088 0.751,0.37355c0.21791,0.14268 0.39301,0.30481 0.52531,0.4864c0.1323,0.18159 0.19845,0.38393 0.19845,0.60703c0,0.12971 -0.02464,0.24904 -0.07393,0.35799c-0.04929,0.10895 -0.11544,0.20234 -0.19845,0.28017c-0.08301,0.07782 -0.18029,0.13879 -0.29184,0.18289c-0.11155,0.0441 -0.22699,0.06615 -0.34632,0.06615c-0.15565,0 -0.29833,-0.03372 -0.42803,-0.10117c-0.24385,-0.12452 -0.47083,-0.23088 -0.68096,-0.31908c-0.21012,-0.0882 -0.41895,-0.16084 -0.62648,-0.21791c-0.20753,-0.05707 -0.42155,-0.09858 -0.64205,-0.12452c-0.2205,-0.02594 -0.46305,-0.03891 -0.72765,-0.03891c-0.24904,0 -0.49418,0.02205 -0.73544,0.06615c-0.24125,0.0441 -0.45657,0.11414 -0.64594,0.21012c-0.18937,0.09598 -0.34243,0.2192 -0.45916,0.36966c-0.11674,0.15046 -0.1751,0.33464 -0.1751,0.55255z" data-paper-data="{&quot;glyphName&quot;:&quot;S&quot;,&quot;glyphIndex&quot;:9,&quot;firstGlyphOfWord&quot;:true,&quot;word&quot;:3}" id="element-id-68852"></path><path d="M344.80732,340.92648c0,1.28669 0.20494,2.25819 0.61481,2.91451c0.40987,0.65632 1.05062,0.98447 1.92225,0.98447c0.85606,0 1.49422,-0.32686 1.91447,-0.98058c0.42025,-0.65372 0.63037,-1.62652 0.63037,-2.9184c0,-0.62259 -0.05059,-1.17644 -0.15176,-1.66154c-0.10117,-0.4851 -0.25552,-0.89368 -0.46305,-1.22573c-0.20753,-0.33205 -0.47083,-0.58498 -0.78991,-0.75878c-0.31908,-0.17381 -0.69912,-0.26071 -1.14012,-0.26071c-0.43581,0 -0.81326,0.0869 -1.13234,0.26071c-0.31908,0.17381 -0.58238,0.42673 -0.78991,0.75878c-0.20753,0.33205 -0.36188,0.74062 -0.46305,1.22573c-0.10117,0.4851 -0.15176,1.03895 -0.15176,1.66154zM341.77996,340.92648c0,-0.85606 0.11544,-1.64727 0.34632,-2.37363c0.23088,-0.72636 0.57719,-1.35154 1.03895,-1.87556c0.46176,-0.52401 1.04025,-0.93389 1.73547,-1.22962c0.69523,-0.29573 1.50978,-0.4436 2.44367,-0.4436c0.90795,0 1.70953,0.14268 2.40476,0.42803c0.69523,0.28535 1.27631,0.68874 1.74326,1.21016c0.46694,0.52142 0.81975,1.14531 1.05841,1.87167c0.23866,0.72636 0.35799,1.53054 0.35799,2.41254c0,0.86644 -0.11674,1.66284 -0.35021,2.3892c-0.23347,0.72636 -0.58368,1.35025 -1.05062,1.87167c-0.46694,0.52142 -1.04803,0.9274 -1.74326,1.21794c-0.69523,0.29054 -1.502,0.43581 -2.42032,0.43581c-0.89757,0 -1.69267,-0.14008 -2.3853,-0.42025c-0.69263,-0.28017 -1.27502,-0.67837 -1.74715,-1.1946c-0.47213,-0.51623 -0.82883,-1.13753 -1.07008,-1.86388c-0.24125,-0.72636 -0.36188,-1.53832 -0.36188,-2.43589z" data-paper-data="{&quot;glyphName&quot;:&quot;O&quot;,&quot;glyphIndex&quot;:10,&quot;word&quot;:3}" id="element-id-92046"></path><path d="M373.20061,344.4986c0.14008,0 0.27368,0.02724 0.40079,0.08172c0.12711,0.05448 0.23736,0.12841 0.33075,0.2218c0.09339,0.09339 0.16732,0.20364 0.2218,0.33075c0.05448,0.12711 0.08172,0.26071 0.08172,0.40079c0,0.14008 -0.02724,0.27368 -0.08172,0.40079c-0.05448,0.12711 -0.12841,0.23736 -0.2218,0.33075c-0.09339,0.09339 -0.20364,0.16732 -0.33075,0.2218c-0.12711,0.05448 -0.26071,0.08172 -0.40079,0.08172h-5.33094c-0.28017,0 -0.51364,-0.06096 -0.70042,-0.18289c-0.18678,-0.12192 -0.33594,-0.28276 -0.44749,-0.48251c-0.11155,-0.19975 -0.18937,-0.42673 -0.23347,-0.68096c-0.0441,-0.25422 -0.06615,-0.51364 -0.06615,-0.77824v-7.66566c0,-0.21272 0.03761,-0.41117 0.11284,-0.59535c0.07523,-0.18418 0.1777,-0.34502 0.3074,-0.48251c0.12971,-0.13749 0.28146,-0.24515 0.45527,-0.32297c0.17381,-0.07782 0.36188,-0.11674 0.56422,-0.11674c0.20234,0 0.39042,0.03891 0.56422,0.11674c0.17381,0.07782 0.32686,0.18548 0.45916,0.32297c0.1323,0.13749 0.23607,0.29833 0.3113,0.48251c0.07523,0.18418 0.11284,0.38263 0.11284,0.59535l0.00778,7.72014z" data-paper-data="{&quot;glyphName&quot;:&quot;L&quot;,&quot;glyphIndex&quot;:11,&quot;word&quot;:3}" id="element-id-63265"></path><path d="M393.5071,336.77847c0,-0.21272 0.03761,-0.41117 0.11284,-0.59535c0.07523,-0.18418 0.1777,-0.34502 0.3074,-0.48251c0.12971,-0.13749 0.28146,-0.24515 0.45527,-0.32297c0.17381,-0.07782 0.36188,-0.11674 0.56422,-0.11674c0.20234,0 0.39042,0.03891 0.56422,0.11674c0.17381,0.07782 0.32686,0.18548 0.45916,0.32297c0.1323,0.13749 0.23607,0.29833 0.3113,0.48251c0.07523,0.18418 0.11284,0.38263 0.11284,0.59535v5.96131c0,0.68485 -0.12063,1.2828 -0.36188,1.79384c-0.24125,0.51104 -0.57849,0.93778 -1.01171,1.2802c-0.43322,0.34243 -0.94816,0.59924 -1.54481,0.77046c-0.59665,0.17121 -1.25037,0.25682 -1.96116,0.25682c-0.70042,0 -1.34765,-0.08431 -1.94171,-0.25293c-0.59406,-0.16862 -1.10769,-0.42155 -1.54091,-0.75878c-0.43322,-0.33724 -0.77175,-0.76267 -1.0156,-1.27631c-0.24385,-0.51364 -0.36577,-1.11807 -0.36577,-1.8133v-5.96131c0,-0.21272 0.03761,-0.41117 0.11284,-0.59535c0.07523,-0.18418 0.1777,-0.34502 0.3074,-0.48251c0.12971,-0.13749 0.28146,-0.24515 0.45527,-0.32297c0.17381,-0.07782 0.36188,-0.11674 0.56422,-0.11674c0.20234,0 0.39042,0.03891 0.56422,0.11674c0.17381,0.07782 0.32686,0.18548 0.45916,0.32297c0.1323,0.13749 0.23607,0.29833 0.3113,0.48251c0.07523,0.18418 0.11284,0.38263 0.11284,0.59535l0.00778,5.91462c0,0.37355 0.05707,0.69523 0.17121,0.96502c0.11414,0.26979 0.2633,0.49029 0.44749,0.6615c0.18418,0.17121 0.39431,0.29833 0.63037,0.38134c0.23607,0.08301 0.47602,0.12452 0.71987,0.12452c0.24904,0 0.49159,-0.04151 0.72765,-0.12452c0.23607,-0.08301 0.44749,-0.21012 0.63427,-0.38134c0.18678,-0.17121 0.33853,-0.39171 0.45527,-0.6615c0.11674,-0.26979 0.1751,-0.59146 0.1751,-0.96502z" data-paper-data="{&quot;glyphName&quot;:&quot;U&quot;,&quot;glyphIndex&quot;:12,&quot;word&quot;:3}" id="element-id-28496"></path><path d="M409.82957,341.01209c0,-0.94426 0.13879,-1.78865 0.41636,-2.53317c0.27757,-0.74452 0.66539,-1.37359 1.16347,-1.88723c0.49807,-0.51364 1.09083,-0.90665 1.77828,-1.17903c0.68744,-0.27238 1.44104,-0.40858 2.26079,-0.40858c0.64853,0 1.21276,0.04021 1.69267,0.12063c0.47991,0.08042 0.87811,0.19067 1.1946,0.33075c0.31648,0.14008 0.55255,0.30611 0.7082,0.49807c0.15565,0.19197 0.23347,0.3995 0.23347,0.62259c0,0.15046 -0.03113,0.28146 -0.09339,0.39301c-0.06226,0.11155 -0.14397,0.20364 -0.24515,0.27628c-0.10117,0.07264 -0.21402,0.12582 -0.33853,0.15954c-0.12452,0.03372 -0.24904,0.05059 -0.37355,0.05059c-0.07264,0 -0.14527,-0.0013 -0.21791,-0.00389c-0.07264,-0.00259 -0.14268,-0.01427 -0.21012,-0.03502c-0.19715,-0.05188 -0.38523,-0.10247 -0.56422,-0.15176c-0.179,-0.04929 -0.3554,-0.09209 -0.5292,-0.12841c-0.17381,-0.03632 -0.34761,-0.06615 -0.52142,-0.0895c-0.17381,-0.02335 -0.3541,-0.03502 -0.54088,-0.03502c-0.38912,0 -0.75619,0.05837 -1.10121,0.1751c-0.34502,0.11674 -0.64464,0.32297 -0.89887,0.6187c-0.25422,0.29573 -0.45527,0.69652 -0.60314,1.20238c-0.14787,0.50586 -0.2218,1.1505 -0.2218,1.93393c0,0.60184 0.05967,1.14271 0.179,1.62263c0.11933,0.47991 0.29703,0.88719 0.53309,1.22184c0.23607,0.33464 0.5318,0.59146 0.88719,0.77046c0.3554,0.179 0.76916,0.26849 1.24129,0.26849c0.19197,0 0.39171,-0.02075 0.59924,-0.06226c0.20753,-0.04151 0.42025,-0.09469 0.63816,-0.15954c0.21791,-0.06485 0.43971,-0.13879 0.66539,-0.2218c0.22569,-0.08301 0.45008,-0.16602 0.67318,-0.24904c0.06745,-0.02075 0.15046,-0.03113 0.24904,-0.03113c0.12971,0 0.24774,0.02464 0.3541,0.07393c0.10636,0.04929 0.19845,0.11544 0.27628,0.19845c0.07782,0.08301 0.13749,0.18029 0.179,0.29184c0.04151,0.11155 0.06226,0.22958 0.06226,0.3541c0,0.20234 -0.06615,0.38782 -0.19845,0.55644c-0.1323,0.16862 -0.3074,0.32038 -0.52531,0.45527c-0.21791,0.13489 -0.46824,0.25293 -0.751,0.3541c-0.28276,0.10117 -0.5746,0.18548 -0.87552,0.25293c-0.30092,0.06745 -0.60054,0.11803 -0.89887,0.15176c-0.29833,0.03372 -0.5746,0.05059 -0.82883,0.05059c-0.76786,0 -1.48384,-0.12841 -2.14794,-0.38523c-0.6641,-0.25682 -1.23999,-0.63297 -1.72769,-1.12845c-0.4877,-0.49548 -0.87163,-1.1051 -1.15179,-1.82886c-0.28017,-0.72376 -0.42025,-1.55259 -0.42025,-2.48648zM414.56905,346.52981h0.86385l-0.38134,0.88719c0.20234,-0.01556 0.37096,-0.02335 0.50586,-0.02335c0.18678,0.00519 0.35929,0.03372 0.51753,0.08561c0.15824,0.05188 0.29703,0.131 0.41636,0.23736c0.11933,0.10636 0.21272,0.23866 0.28017,0.3969c0.06745,0.15824 0.10117,0.34891 0.10117,0.57201c-0.01038,0.22828 -0.07264,0.42673 -0.18678,0.59535c-0.11414,0.16862 -0.26071,0.3074 -0.43971,0.41636c-0.179,0.10895 -0.38393,0.18937 -0.61481,0.24125c-0.23088,0.05188 -0.47083,0.07782 -0.71987,0.07782c-0.1764,0 -0.36318,-0.01167 -0.56033,-0.03502c-0.19715,-0.02335 -0.38263,-0.05448 -0.55644,-0.09339c-0.17381,-0.03891 -0.32556,-0.0869 -0.45527,-0.14397c-0.12971,-0.05707 -0.21272,-0.11674 -0.24904,-0.179c-0.03113,-0.05188 -0.04669,-0.11933 -0.04669,-0.20234c0,-0.10895 0.03113,-0.20494 0.09339,-0.28795c0.06226,-0.08301 0.15305,-0.12452 0.27238,-0.12452c0.01038,0 0.02075,0.0013 0.03113,0.00389c0.01038,0.00259 0.02075,0.00389 0.03113,0.00389c0.1764,0.04669 0.37355,0.10247 0.59146,0.16732c0.21791,0.06485 0.42544,0.09728 0.62259,0.09728c0.29573,0 0.50715,-0.05577 0.63427,-0.16732c0.12711,-0.11155 0.19067,-0.25812 0.19067,-0.43971c0,-0.09858 -0.02205,-0.18159 -0.06615,-0.24904c-0.0441,-0.06745 -0.10117,-0.12192 -0.17121,-0.16343c-0.07004,-0.04151 -0.14916,-0.07134 -0.23736,-0.0895c-0.0882,-0.01816 -0.1764,-0.02724 -0.2646,-0.02724c-0.04151,0.00519 -0.08301,0.01167 -0.12452,0.01946c-0.04151,0.00778 -0.08301,0.01427 -0.12452,0.01946c-0.14527,0 -0.25812,-0.02724 -0.33853,-0.08172c-0.08042,-0.05448 -0.12063,-0.13619 -0.12063,-0.24515c0,-0.07782 0.02335,-0.16862 0.07004,-0.27238z" data-paper-data="{&quot;glyphName&quot;:&quot;Ç&quot;,&quot;glyphIndex&quot;:13,&quot;word&quot;:3}" id="element-id-33112"></path><path d="M438.1737,337.39328l-1.71213,5.00408h3.45538l-1.70434,-5.00408zM443.24782,344.21066c0.03632,0.09339 0.07523,0.19067 0.11674,0.29184c0.04151,0.10117 0.08042,0.20364 0.11674,0.3074c0.03632,0.10377 0.06615,0.20364 0.0895,0.29962c0.02335,0.09598 0.03502,0.18289 0.03502,0.26071c0,0.19197 -0.03502,0.36188 -0.10506,0.50975c-0.07004,0.14787 -0.16473,0.27238 -0.28406,0.37355c-0.11933,0.10117 -0.25812,0.179 -0.41636,0.23347c-0.15824,0.05448 -0.32556,0.08172 -0.50196,0.08172c-0.20234,0 -0.37615,-0.02854 -0.52142,-0.08561c-0.14527,-0.05707 -0.27498,-0.14787 -0.38912,-0.27238c-0.11414,-0.12452 -0.2192,-0.28665 -0.31519,-0.4864c-0.09598,-0.19975 -0.19845,-0.44489 -0.3074,-0.73544l-0.37355,-0.98836h-4.40484l-0.31908,0.98836c-0.09339,0.29573 -0.18807,0.54477 -0.28406,0.74711c-0.09598,0.20234 -0.20234,0.36448 -0.31908,0.4864c-0.11674,0.12192 -0.25033,0.21012 -0.40079,0.2646c-0.15046,0.05448 -0.32686,0.08172 -0.5292,0.08172c-0.1764,0 -0.34372,-0.02724 -0.50196,-0.08172c-0.15824,-0.05448 -0.29703,-0.1323 -0.41636,-0.23347c-0.11933,-0.10117 -0.21402,-0.22569 -0.28406,-0.37355c-0.07004,-0.14787 -0.10506,-0.31778 -0.10506,-0.50975c0,-0.07782 0.01167,-0.16473 0.03502,-0.26071c0.02335,-0.09598 0.05318,-0.19586 0.0895,-0.29962c0.03632,-0.10377 0.07523,-0.20623 0.11674,-0.3074c0.04151,-0.10117 0.08042,-0.19845 0.11674,-0.29184l2.09346,-5.6578c0.19715,-0.5292 0.38523,-0.99744 0.56422,-1.40472c0.179,-0.40728 0.37615,-0.751 0.59146,-1.03117c0.21531,-0.28017 0.46305,-0.49159 0.74322,-0.63427c0.28017,-0.14268 0.62,-0.21402 1.01949,-0.21402c0.37355,0 0.69263,0.05577 0.95723,0.16732c0.2646,0.11155 0.50326,0.29573 0.71598,0.55255c0.21272,0.25682 0.41506,0.59535 0.60703,1.0156c0.19197,0.42025 0.40468,0.93648 0.63816,1.5487zM439.44223,332.84836c0.09858,0 0.17121,-0.03632 0.21791,-0.10895c0.04669,-0.07264 0.09469,-0.15565 0.14397,-0.24904c0.04929,-0.09339 0.11155,-0.18548 0.18678,-0.27628c0.07523,-0.09079 0.19586,-0.15694 0.36188,-0.19845c0.02594,-0.00519 0.06485,-0.00778 0.11674,-0.00778c0.15046,0 0.28406,0.04799 0.40079,0.14397c0.11674,0.09598 0.1751,0.22439 0.1751,0.38523c0,0.27498 -0.04151,0.51883 -0.12452,0.73155c-0.08301,0.21272 -0.19456,0.39171 -0.33464,0.53699c-0.14008,0.14527 -0.30481,0.25552 -0.49418,0.33075c-0.18937,0.07523 -0.39042,0.11284 -0.60314,0.11284c-0.23347,0 -0.45657,-0.0428 -0.66929,-0.12841c-0.21272,-0.08561 -0.41376,-0.18159 -0.60314,-0.28795c-0.18937,-0.10636 -0.36707,-0.20234 -0.53309,-0.28795c-0.16602,-0.08561 -0.31648,-0.12841 -0.45138,-0.12841c-0.13489,0 -0.24385,0.05059 -0.32686,0.15176c-0.08301,0.10117 -0.15824,0.21402 -0.22569,0.33853c-0.07264,0.13489 -0.16213,0.22699 -0.26849,0.27628c-0.10636,0.04929 -0.2192,0.07393 -0.33853,0.07393c-0.15046,0 -0.28017,-0.0441 -0.38912,-0.1323c-0.10895,-0.0882 -0.16343,-0.21531 -0.16343,-0.38134c0,-0.03113 0.00259,-0.05707 0.00778,-0.07782c0.05707,-0.51364 0.21531,-0.91573 0.47473,-1.20627c0.25941,-0.29054 0.62778,-0.43581 1.1051,-0.43581c0.24904,0 0.4851,0.0428 0.7082,0.12841c0.2231,0.08561 0.43192,0.18029 0.62648,0.28406c0.19456,0.10377 0.37615,0.19845 0.54477,0.28406c0.16862,0.08561 0.32038,0.12841 0.45527,0.12841z" data-paper-data="{&quot;glyphName&quot;:&quot;Ã&quot;,&quot;glyphIndex&quot;:14,&quot;word&quot;:3}" id="element-id-35935"></path><path d="M459.93706,340.92648c0,1.28669 0.20494,2.25819 0.61481,2.91451c0.40987,0.65632 1.05062,0.98447 1.92225,0.98447c0.85606,0 1.49422,-0.32686 1.91447,-0.98058c0.42025,-0.65372 0.63037,-1.62652 0.63037,-2.9184c0,-0.62259 -0.05059,-1.17644 -0.15176,-1.66154c-0.10117,-0.4851 -0.25552,-0.89368 -0.46305,-1.22573c-0.20753,-0.33205 -0.47083,-0.58498 -0.78991,-0.75878c-0.31908,-0.17381 -0.69912,-0.26071 -1.14012,-0.26071c-0.43581,0 -0.81326,0.0869 -1.13234,0.26071c-0.31908,0.17381 -0.58238,0.42673 -0.78991,0.75878c-0.20753,0.33205 -0.36188,0.74062 -0.46305,1.22573c-0.10117,0.4851 -0.15176,1.03895 -0.15176,1.66154zM456.9097,340.92648c0,-0.85606 0.11544,-1.64727 0.34632,-2.37363c0.23088,-0.72636 0.57719,-1.35154 1.03895,-1.87556c0.46176,-0.52401 1.04025,-0.93389 1.73547,-1.22962c0.69523,-0.29573 1.50978,-0.4436 2.44367,-0.4436c0.90795,0 1.70953,0.14268 2.40476,0.42803c0.69523,0.28535 1.27631,0.68874 1.74326,1.21016c0.46694,0.52142 0.81975,1.14531 1.05841,1.87167c0.23866,0.72636 0.35799,1.53054 0.35799,2.41254c0,0.86644 -0.11674,1.66284 -0.35021,2.3892c-0.23347,0.72636 -0.58368,1.35025 -1.05062,1.87167c-0.46694,0.52142 -1.04803,0.9274 -1.74326,1.21794c-0.69523,0.29054 -1.502,0.43581 -2.42032,0.43581c-0.89757,0 -1.69267,-0.14008 -2.3853,-0.42025c-0.69263,-0.28017 -1.27502,-0.67837 -1.74715,-1.1946c-0.47213,-0.51623 -0.82883,-1.13753 -1.07008,-1.86388c-0.24125,-0.72636 -0.36188,-1.53832 -0.36188,-2.43589z" data-paper-data="{&quot;glyphName&quot;:&quot;O&quot;,&quot;glyphIndex&quot;:15,&quot;lastGlyphOfWord&quot;:true,&quot;word&quot;:3}" id="element-id-35643"></path></g><g data-paper-data="{&quot;isPrimaryText&quot;:true}" fill-rule="nonzero" id="element-id-62058"><path d="M71.83184,308.95958v11.67295h-6.83184v-31.6708h6.83184v13.21125h10.81331v-13.21125h6.7866v31.6708h-6.7866v-11.67295z" data-paper-data="{&quot;glyphName&quot;:&quot;H&quot;,&quot;glyphIndex&quot;:0,&quot;firstGlyphOfWord&quot;:true,&quot;word&quot;:1}" id="element-id-67854"></path><path d="M101.69288,320.63253v-24.8842h-7.73672v-6.7866h22.2148v6.7866h-7.69148v24.8842z" data-paper-data="{&quot;glyphName&quot;:&quot;T&quot;,&quot;glyphIndex&quot;:1,&quot;word&quot;:1}" id="element-id-87573"></path><path d="M150.1492,310.27165c-0.69374,2.08122 -1.74943,3.94377 -3.16708,5.58763c-1.41765,1.64387 -3.07659,2.91824 -4.97684,3.82312c-1.90025,0.93504 -3.93623,1.40256 -6.10794,1.40256c-2.71464,0 -5.24076,-0.73144 -7.57837,-2.19433c-2.33761,-1.46289 -4.18507,-3.44608 -5.54239,-5.94959c-1.38748,-2.47334 -2.08122,-5.18798 -2.08122,-8.14392c0,-2.92578 0.67866,-5.64042 2.03598,-8.14392c1.35732,-2.5035 3.21232,-4.49424 5.56501,-5.97221c2.29236,-1.44781 4.82603,-2.17171 7.60099,-2.17171c2.14155,0 4.16999,0.45998 6.08532,1.37994c1.91533,0.91996 3.5969,2.20942 5.04471,3.86836c1.47797,1.74943 2.53366,3.6346 3.16708,5.6555h-7.42002c-0.81439,-1.26683 -1.82484,-2.26974 -3.03135,-3.00873c-1.20651,-0.73899 -2.48842,-1.10848 -3.84574,-1.10848c-1.50813,0 -2.90316,0.42982 -4.18507,1.28945c-1.28191,0.85964 -2.2999,2.01336 -3.05397,3.46117c-0.75407,1.41765 -1.1311,3.00118 -1.1311,4.75062c0,1.68911 0.37703,3.25757 1.1311,4.70538c0.75407,1.44781 1.7796,2.60907 3.07659,3.48379c1.29699,0.87472 2.68448,1.31208 4.16245,1.31208c1.35732,0 2.63169,-0.35441 3.82312,-1.06323c1.19143,-0.70882 2.19433,-1.69665 3.00873,-2.96348z" data-paper-data="{&quot;glyphName&quot;:&quot;C&quot;,&quot;glyphIndex&quot;:2,&quot;lastGlyphOfWord&quot;:true,&quot;word&quot;:1}" id="element-id-61127"></path><path d="M176.07401,288.96173c1.90025,0 3.6723,0.42228 5.31617,1.26683c1.64387,0.84455 2.93332,1.97565 3.86836,3.3933c0.93504,1.38748 1.40256,2.88053 1.40256,4.47916c0,1.87009 -0.67866,3.61952 -2.03598,5.2483c1.23667,0.90488 2.18679,2.02844 2.85037,3.37068c0.66358,1.34224 0.99537,2.78251 0.99537,4.3208c0,1.71927 -0.43736,3.31035 -1.31208,4.77324c-0.87472,1.46289 -2.06614,2.63169 -3.57428,3.50641c-1.50813,0.87472 -3.152,1.31208 -4.9316,1.31208l-11.49197,-0.04524v-31.62555zM176.97889,301.76578c0.81439,0 1.53076,-0.33179 2.14909,-0.99537c0.61833,-0.66358 0.9275,-1.40256 0.9275,-2.21696c0,-0.84455 -0.31671,-1.576 -0.95012,-2.19433c-0.63342,-0.61833 -1.34224,-0.9275 -2.12647,-0.9275h-3.03135v6.33416zM178.65291,314.16264c0.75407,0 1.44781,-0.31671 2.08122,-0.95012c0.63342,-0.63342 0.95012,-1.35732 0.95012,-2.17171c0,-0.81439 -0.30163,-1.55338 -0.90488,-2.21696c-0.60325,-0.66358 -1.31208,-0.99537 -2.12647,-0.99537h-4.70538v6.33416z" data-paper-data="{&quot;glyphName&quot;:&quot;B&quot;,&quot;glyphIndex&quot;:3,&quot;firstGlyphOfWord&quot;:true,&quot;word&quot;:2}" id="element-id-1145"></path><path d="M214.07896,288.96173h8.23441l-11.22051,17.59991v14.07088h-6.7866v-14.02564l-11.311,-17.64516h8.23441l6.46989,10.45136z" data-paper-data="{&quot;glyphName&quot;:&quot;Y&quot;,&quot;glyphIndex&quot;:4,&quot;lastGlyphOfWord&quot;:true,&quot;word&quot;:2}" id="element-id-97905"></path><path d="M257.01551,303.66603c1.50813,0.90488 2.69202,2.05106 3.55165,3.43854c0.85964,1.38748 1.28945,2.86545 1.28945,4.43391c0,1.68911 -0.50522,3.26511 -1.51567,4.728c-1.01045,1.46289 -2.39039,2.63169 -4.13983,3.50641c-1.80976,0.87472 -3.71001,1.31208 -5.70074,1.31208c-1.87009,0 -3.62706,-0.35441 -5.27093,-1.06323c-1.64387,-0.70882 -3.02381,-1.84746 -4.13983,-3.41592c-1.20651,-1.59862 -1.80976,-3.77033 -1.80976,-6.51514h7.1938c0,1.35732 0.39966,2.40547 1.19897,3.14446c0.79931,0.73899 1.74189,1.10848 2.82775,1.10848c1.05569,0 1.96811,-0.279 2.73726,-0.83701c0.76915,-0.55801 1.15372,-1.21405 1.15372,-1.96811c0,-0.84455 -0.4826,-1.56846 -1.44781,-2.17171l-8.14392,-4.84111c-1.38748,-0.84455 -2.47334,-1.90025 -3.25757,-3.16708c-0.78423,-1.26683 -1.17634,-2.60907 -1.17634,-4.02672c0,-1.59862 0.45998,-3.07659 1.37994,-4.43391c0.91996,-1.35732 2.19433,-2.42809 3.82312,-3.21232c1.62878,-0.78423 3.36314,-1.17634 5.20306,-1.17634c2.17171,0 4.02672,0.4449 5.56501,1.3347c1.5383,0.8898 2.69956,2.10385 3.48379,3.64214c0.75407,1.47797 1.1311,3.07659 1.1311,4.79586h-6.83184c0,-0.87472 -0.30163,-1.59108 -0.90488,-2.14909c-0.60325,-0.55801 -1.41765,-0.83701 -2.44318,-0.83701c-0.81439,0 -1.50059,0.19606 -2.0586,0.58817c-0.55801,0.39211 -0.83701,0.87472 -0.83701,1.44781c0,0.60325 0.33179,1.10094 0.99537,1.49305z" data-paper-data="{&quot;glyphName&quot;:&quot;S&quot;,&quot;glyphIndex&quot;:5,&quot;firstGlyphOfWord&quot;:true,&quot;word&quot;:3}" id="element-id-24357"></path><path d="M281.89971,321.08497c2.77496,0 5.36141,-0.73144 7.75935,-2.19433c2.39793,-1.46289 4.29064,-3.44608 5.67812,-5.94959c1.38748,-2.47334 2.08122,-5.18798 2.08122,-8.14392c0,-2.92578 -0.69374,-5.64042 -2.08122,-8.14392c-1.38748,-2.5035 -3.27265,-4.49424 -5.6555,-5.97221c-2.41301,-1.44781 -5.007,-2.17171 -7.78197,-2.17171c-2.80513,0 -5.39912,0.7239 -7.78197,2.17171c-2.38285,1.44781 -4.26802,3.42346 -5.6555,5.92696c-1.38748,2.47334 -2.08122,5.20306 -2.08122,8.18916c0,2.95594 0.69374,5.67812 2.08122,8.16654c1.38748,2.48842 3.27265,4.45653 5.6555,5.90434c2.38285,1.47797 4.97684,2.21696 7.78197,2.21696zM281.89971,295.29589c1.5383,0 2.9861,0.42982 4.34342,1.28945c1.35732,0.85964 2.42809,2.01336 3.21232,3.46117c0.78423,1.47797 1.17634,3.06151 1.17634,4.75062c0,1.71927 -0.38457,3.29527 -1.15372,4.728c-0.76915,1.43273 -1.83238,2.58645 -3.1897,3.46117c-1.38748,0.87472 -2.85037,1.31208 -4.38867,1.31208c-1.5383,0 -2.9861,-0.42982 -4.34342,-1.28945c-1.35732,-0.85964 -2.42809,-2.01336 -3.21232,-3.46117c-0.78423,-1.47797 -1.17634,-3.06151 -1.17634,-4.75062c0,-1.71927 0.39211,-3.30281 1.17634,-4.75062c0.78423,-1.44781 1.855,-2.60907 3.21232,-3.48379c1.29699,-0.84455 2.7448,-1.26683 4.34342,-1.26683z" data-paper-data="{&quot;glyphName&quot;:&quot;O&quot;,&quot;glyphIndex&quot;:6,&quot;word&quot;:3}" id="element-id-74082"></path><path d="M319.27125,313.80069v6.83184h-17.32845v-31.6708h6.7866v24.83895z" data-paper-data="{&quot;glyphName&quot;:&quot;L&quot;,&quot;glyphIndex&quot;:7,&quot;word&quot;:3}" id="element-id-55339"></path><path d="M330.62749,309.77397c0,0.81439 0.24884,1.56092 0.74653,2.23958c0.49768,0.67866 1.15372,1.22913 1.96811,1.65141c0.78423,0.42228 1.6137,0.63342 2.48842,0.63342c0.84455,0 1.67403,-0.2036 2.48842,-0.61079c0.81439,-0.4072 1.46289,-0.95766 1.94549,-1.65141c0.4826,-0.66358 0.7239,-1.41765 0.7239,-2.2622v-20.81224h6.83184v20.81224c0,1.99074 -0.55047,3.86082 -1.65141,5.61026c-1.10094,1.74943 -2.58645,3.13692 -4.45653,4.16245c-1.83992,1.02553 -3.8005,1.5383 -5.88172,1.5383c-2.08122,0 -4.04934,-0.51277 -5.90434,-1.5383c-1.855,-1.02553 -3.34051,-2.41301 -4.45653,-4.16245c-1.11602,-1.68911 -1.67403,-3.55919 -1.67403,-5.61026v-20.81224h6.83184z" data-paper-data="{&quot;glyphName&quot;:&quot;U&quot;,&quot;glyphIndex&quot;:8,&quot;word&quot;:3}" id="element-id-70100"></path><path d="M381.79845,310.27165c-0.69374,2.08122 -1.74943,3.94377 -3.16708,5.58763c-1.41765,1.64387 -3.07659,2.91824 -4.97684,3.82312c-1.90025,0.93504 -3.93623,1.40256 -6.10794,1.40256c-2.71464,0 -5.24076,-0.73144 -7.57837,-2.19433c-2.33761,-1.46289 -4.18507,-3.44608 -5.54239,-5.94959c-1.38748,-2.47334 -2.08122,-5.18798 -2.08122,-8.14392c0,-2.92578 0.67866,-5.64042 2.03598,-8.14392c1.35732,-2.5035 3.21232,-4.49424 5.56501,-5.97221c2.29236,-1.44781 4.82603,-2.17171 7.60099,-2.17171c2.14155,0 4.16999,0.45998 6.08532,1.37994c1.91533,0.91996 3.5969,2.20942 5.04471,3.86836c1.47797,1.74943 2.53366,3.6346 3.16708,5.6555h-7.42002c-0.81439,-1.26683 -1.82484,-2.26974 -3.03135,-3.00873c-1.20651,-0.73899 -2.48842,-1.10848 -3.84574,-1.10848c-1.50813,0 -2.90316,0.42982 -4.18507,1.28945c-1.28191,0.85964 -2.2999,2.01336 -3.05397,3.46117c-0.75407,1.41765 -1.1311,3.00118 -1.1311,4.75062c0,1.68911 0.37703,3.25757 1.1311,4.70538c0.75407,1.44781 1.7796,2.60907 3.07659,3.48379c1.29699,0.87472 2.68448,1.31208 4.16245,1.31208c1.35732,0 2.63169,-0.35441 3.82312,-1.06323c1.19143,-0.70882 2.19433,-1.69665 3.00873,-2.96348z" data-paper-data="{&quot;glyphName&quot;:&quot;C&quot;,&quot;glyphIndex&quot;:9,&quot;word&quot;:3}" id="element-id-43379"></path><path d="M394.10482,320.63253v-24.8842h-7.73672v-6.7866h22.2148v6.7866h-7.69148v24.8842z" data-paper-data="{&quot;glyphName&quot;:&quot;T&quot;,&quot;glyphIndex&quot;:10,&quot;word&quot;:3}" id="element-id-10944"></path><path d="M419.89389,288.96173v31.6708h-6.7866v-31.6708z" data-paper-data="{&quot;glyphName&quot;:&quot;I&quot;,&quot;glyphIndex&quot;:11,&quot;word&quot;:3}" id="element-id-91543"></path><path d="M439.93698,321.08497c2.77496,0 5.36141,-0.73144 7.75935,-2.19433c2.39793,-1.46289 4.29064,-3.44608 5.67812,-5.94959c1.38748,-2.47334 2.08122,-5.18798 2.08122,-8.14392c0,-2.92578 -0.69374,-5.64042 -2.08122,-8.14392c-1.38748,-2.5035 -3.27265,-4.49424 -5.6555,-5.97221c-2.41301,-1.44781 -5.007,-2.17171 -7.78197,-2.17171c-2.80513,0 -5.39912,0.7239 -7.78197,2.17171c-2.38285,1.44781 -4.26802,3.42346 -5.6555,5.92696c-1.38748,2.47334 -2.08122,5.20306 -2.08122,8.18916c0,2.95594 0.69374,5.67812 2.08122,8.16654c1.38748,2.48842 3.27265,4.45653 5.6555,5.90434c2.38285,1.47797 4.97684,2.21696 7.78197,2.21696zM439.93698,295.29589c1.5383,0 2.9861,0.42982 4.34342,1.28945c1.35732,0.85964 2.42809,2.01336 3.21232,3.46117c0.78423,1.47797 1.17634,3.06151 1.17634,4.75062c0,1.71927 -0.38457,3.29527 -1.15372,4.728c-0.76915,1.43273 -1.83238,2.58645 -3.1897,3.46117c-1.38748,0.87472 -2.85037,1.31208 -4.38867,1.31208c-1.5383,0 -2.9861,-0.42982 -4.34342,-1.28945c-1.35732,-0.85964 -2.42809,-2.01336 -3.21232,-3.46117c-0.78423,-1.47797 -1.17634,-3.06151 -1.17634,-4.75062c0,-1.71927 0.39211,-3.30281 1.17634,-4.75062c0.78423,-1.44781 1.855,-2.60907 3.21232,-3.48379c1.29699,-0.84455 2.7448,-1.26683 4.34342,-1.26683z" data-paper-data="{&quot;glyphName&quot;:&quot;O&quot;,&quot;glyphIndex&quot;:12,&quot;word&quot;:3}" id="element-id-26124"></path><path d="M485,288.96173v31.6708h-6.69611l-11.49197,-19.09297v19.09297h-6.83184v-31.6708h7.1938l11.03953,18.27857v-18.27857z" data-paper-data="{&quot;glyphName&quot;:&quot;N&quot;,&quot;glyphIndex&quot;:13,&quot;lastGlyphOfWord&quot;:true,&quot;word&quot;:3}" id="element-id-51853"></path></g><g data-paper-data="{&quot;fillRule&quot;:&quot;nonzero&quot;,&quot;fillRuleOriginal&quot;:&quot;nonzero&quot;,&quot;isIcon&quot;:&quot;true&quot;,&quot;iconStyle&quot;:&quot;standalone&quot;,&quot;selectedEffects&quot;:{&quot;container&quot;:&quot;hexagon_simple_outline1_sharp_rotated&quot;,&quot;transformation&quot;:&quot;&quot;,&quot;pattern&quot;:&quot;&quot;},&quot;bounds&quot;:{&quot;x&quot;:193.01077875365297,&quot;y&quot;:119.98367862504487,&quot;width&quot;:163.97844249269406,&quot;height&quot;:142.29538398137498},&quot;iconType&quot;:&quot;initial&quot;,&quot;initialText&quot;:&quot;H&quot;,&quot;rawInitialId&quot;:756,&quot;relativeBoundsIconToContainer&quot;:{&quot;top&quot;:7.623601676235584e-8,&quot;left&quot;:3.3077536819946e-8},&quot;widthRatioIconToContainer&quot;:0.5692369811093572,&quot;heightRatioIconToContainer&quot;:0.5891932543828097,&quot;suitableAsStandaloneIcon&quot;:true}" fill-rule="evenodd" id="element-id-65147"><g data-paper-data="{&quot;isPathIcon&quot;:true}" id="element-id-35473"><path d="M316.21611,261.96606c0.033,-0.033 0.063,-0.068 0.092,-0.105c0.028,-0.037 0.054,-0.076 0.077,-0.116l40.46111,-70.08019c0.023,-0.04 0.044,-0.082 0.062,-0.125c0.018,-0.043 0.033,-0.087 0.045,-0.132c0.012,-0.045 0.021,-0.091 0.027,-0.137c0.006,-0.047 0.009,-0.093 0.009,-0.14c0,-0.046 -0.003,-0.093 -0.009,-0.139c-0.006,-0.047 -0.015,-0.092 -0.027,-0.137c-0.012,-0.045 -0.027,-0.089 -0.045,-0.133c-0.018,-0.043 -0.039,-0.084 -0.062,-0.125l-40.46111,-70.07919c-0.023,-0.041 -0.049,-0.08 -0.077,-0.117c-0.029,-0.036 -0.059,-0.071 -0.092,-0.104c-0.033,-0.033 -0.068,-0.064 -0.105,-0.092c-0.03733,-0.02867 -0.07633,-0.05467 -0.117,-0.078c-0.04,-0.024 -0.082,-0.044 -0.125,-0.062c-0.043,-0.018 -0.087,-0.033 -0.132,-0.045c-0.045,-0.012 -0.091,-0.021 -0.137,-0.027c-0.046,-0.006 -0.093,-0.009 -0.14,-0.009h-80.92022c-0.047,0 -0.094,0.003 -0.14,0.009c-0.046,0.006 -0.092,0.015 -0.137,0.027c-0.045,0.012 -0.089,0.027 -0.132,0.045c-0.043,0.018 -0.085,0.038 -0.125,0.062c-0.041,0.023 -0.08,0.049 -0.117,0.078c-0.03667,0.028 -0.07167,0.05867 -0.105,0.092c-0.033,0.033 -0.063,0.068 -0.092,0.104c-0.028,0.03733 -0.05367,0.07633 -0.077,0.117l-40.46111,70.07919c-0.023,0.041 -0.044,0.082 -0.062,0.125c-0.018,0.044 -0.033,0.088 -0.045,0.133c-0.012,0.045 -0.021,0.09 -0.027,0.137c-0.006,0.046 -0.009,0.093 -0.009,0.139c0,0.047 0.003,0.093 0.009,0.14c0.006,0.046 0.015,0.092 0.027,0.137c0.012,0.045 0.027,0.089 0.045,0.132c0.018,0.043 0.039,0.085 0.062,0.125l40.46111,70.08019c0.023,0.04 0.049,0.079 0.077,0.116c0.02867,0.03667 0.05933,0.07167 0.092,0.105c0.033,0.033 0.068,0.063 0.105,0.092c0.037,0.028 0.076,0.054 0.117,0.078c0.04,0.023 0.082,0.044 0.125,0.062c0.043,0.017 0.087,0.032 0.132,0.044c0.045,0.013 0.091,0.022 0.137,0.027c0.046,0.007 0.093,0.01 0.14,0.01h80.92022c0.047,0 0.094,-0.003 0.14,-0.01c0.046,-0.005 0.092,-0.014 0.137,-0.027c0.045,-0.012 0.089,-0.027 0.132,-0.044c0.043,-0.018 0.085,-0.039 0.125,-0.062c0.041,-0.024 0.08,-0.05 0.117,-0.078c0.037,-0.029 0.072,-0.059 0.105,-0.092zM235.15589,260.14306l-39.84411,-69.01219l39.84411,-69.01119h79.68822l39.84411,69.01119l-39.84411,69.01219z" id="element-id-51788"></path><path d="M310.2151,154.92477c2.77901,-3.14801 6.59802,-5.05301 11.45603,-5.71302h-31.77509c5.86902,1.01 9.98903,3.31301 12.36103,6.90802c2.37001,3.59601 3.55601,8.28902 3.55601,14.08104c0.15533,-7.03535 1.62267,-12.12737 4.40201,-15.27604z" id="element-id-8653"></path><path d="M228.32887,233.05098c4.81901,-0.7 8.16202,-2.68201 10.02803,-5.94702c1.86501,-3.26501 2.75901,-8.57102 2.68201,-15.91704v-40.11211c0.077,-7.34602 -0.817,-12.65203 -2.68201,-15.91704c-1.86601,-3.26401 -5.20901,-5.24701 -10.02803,-5.94602h24.72007c2.87601,0 5.34401,1.03 7.40402,3.09001c2.06101,2.06001 3.09101,4.52801 3.09101,7.40402v30.78408h42.96912v20.58106c0,7.38469 1.302,12.7097 3.90601,15.97504c2.60401,3.26501 6.35502,5.22701 11.25203,5.88802h-31.77509c4.89801,-0.661 8.64902,-2.62301 11.25303,-5.88802c2.60401,-3.26501 3.90601,-8.59002 3.90601,-15.97504v-19.35705h-41.51111v30.84208c0,2.87701 -1.03,5.34501 -3.09101,7.40502c-2.06001,2.06001 -4.52801,3.09001 -7.40402,3.09001z" id="element-id-9300"></path></g></g></g></g><g class="watermark-group" style="opacity:0.040000010281801224"><path class="watermark-path" d="M129.52,370.3a11.88,11.88,0,0,1,2.58,5.58,12,12,0,0,1,.11,3,11.81,11.81,0,0,1-.64,2.93,12.34,12.34,0,0,1-1.41,2.72,11.65,11.65,0,0,1-2.13,2.32,12,12,0,0,1-2.64,1.69,13,13,0,0,1-2.91.9,12.47,12.47,0,0,1-3,.12,12.17,12.17,0,0,1-2.93-.64,11.8,11.8,0,0,1-2.72-1.38,12.19,12.19,0,0,1-4-4.79,11.85,11.85,0,0,1-.89-2.92,12.14,12.14,0,0,1-.13-3,11.54,11.54,0,0,1,.64-2.92,11.67,11.67,0,0,1,3.5-5,11.44,11.44,0,0,1,2.67-1.69,11.64,11.64,0,0,1,2.92-.91,10.71,10.71,0,0,1,3-.12,11.68,11.68,0,0,1,5.66,2,11.7,11.7,0,0,1,2.34,2.12m-1.4,8.76a13,13,0,0,1-1.22,2.32,9.68,9.68,0,0,1-1.81,2,7.44,7.44,0,0,1-2.38,1.37,6.17,6.17,0,0,1-5.11-.46,8.73,8.73,0,0,1-3.85-4.58,6.69,6.69,0,0,1-.34-2.66,6.09,6.09,0,0,1,.77-2.47,7.15,7.15,0,0,1,1.75-2.11,9.58,9.58,0,0,1,1.09-.81,8.23,8.23,0,0,1,1.12-.63,8.14,8.14,0,0,1,1.19-.46,12.71,12.71,0,0,1,1.32-.37l2,2.38a12.83,12.83,0,0,0-1.56.17,7.86,7.86,0,0,0-1.23.32,4.5,4.5,0,0,0-1,.49,6.41,6.41,0,0,0-.93.67,4.49,4.49,0,0,0-1.15,1.39,3.87,3.87,0,0,0-.45,1.58,4.12,4.12,0,0,0,.26,1.63,6.11,6.11,0,0,0,2.36,2.82,4.43,4.43,0,0,0,1.57.53,3.91,3.91,0,0,0,1.62-.17,4.71,4.71,0,0,0,1.57-.89,10.5,10.5,0,0,0,.83-.79,5.71,5.71,0,0,0,.65-.93,10.13,10.13,0,0,0,.54-1.14,12.24,12.24,0,0,0,.44-1.49l2,2.33m-14.46,4.55a8.86,8.86,0,0,0,2.78,2.22,9,9,0,0,0,3.29.94,9.15,9.15,0,0,0,3.39-.37,8.68,8.68,0,0,0,3.11-1.69,8.8,8.8,0,0,0,2.22-2.78,9.15,9.15,0,0,0,1-3.29,8.95,8.95,0,0,0-4.83-8.76,9,9,0,0,0-6.73-.57,9,9,0,0,0-5.33,4.47,8.94,8.94,0,0,0-.57,6.71,8.76,8.76,0,0,0,1.7,3.12"></path><path class="watermark-path" d="M147,349c-.48.12-1.09.31-1.82.57a24.37,24.37,0,0,0-2.4,1A28.35,28.35,0,0,0,140,352a20.72,20.72,0,0,0-2.71,1.94c-.7.59-1.28,1.11-1.74,1.57a15.07,15.07,0,0,0-1.1,1.22,4.09,4.09,0,0,0-.59.92,2.32,2.32,0,0,0-.22.64,1.16,1.16,0,0,0,0,.47,1.83,1.83,0,0,0,.18.29,1.15,1.15,0,0,0,1,.37,5.54,5.54,0,0,0,1.51-.38q.87-.35,1.95-.9l2.26-1.18q1.2-.65,2.49-1.29c.87-.44,1.73-.83,2.59-1.17a18.94,18.94,0,0,1,2.6-.81,9.27,9.27,0,0,1,2.46-.29,6.25,6.25,0,0,1,2.24.49,5.12,5.12,0,0,1,1.89,1.47,6.35,6.35,0,0,1,1.41,2.61,6,6,0,0,1,.09,2.6,8.3,8.3,0,0,1-.9,2.52,17.79,17.79,0,0,1-1.62,2.37,23.92,23.92,0,0,1-2,2.15c-.72.67-1.41,1.29-2.09,1.87a33.79,33.79,0,0,1-5.33,3.7,32.29,32.29,0,0,1-4.91,2.28l-3.61-4.3a21.38,21.38,0,0,0,5.39-1.87,27.2,27.2,0,0,0,5.4-3.56,21.59,21.59,0,0,0,2.38-2.27,8.67,8.67,0,0,0,1.18-1.7,2.32,2.32,0,0,0,.27-1.19,1.34,1.34,0,0,0-.28-.74,1.21,1.21,0,0,0-1-.42,4.32,4.32,0,0,0-1.55.34,15.77,15.77,0,0,0-2,.88c-.72.37-1.48.77-2.27,1.21l-2.45,1.3c-.85.45-1.7.85-2.56,1.21a22.37,22.37,0,0,1-2.54.86,10,10,0,0,1-2.43.32,5.76,5.76,0,0,1-2.2-.45,5,5,0,0,1-1.89-1.45,6.12,6.12,0,0,1-1.31-2.41,6,6,0,0,1-.1-2.41,8.28,8.28,0,0,1,.81-2.38,14.06,14.06,0,0,1,1.49-2.24,22.37,22.37,0,0,1,1.85-2.05q1-1,2-1.77c.7-.59,1.44-1.15,2.23-1.7s1.62-1.06,2.44-1.53,1.63-.91,2.43-1.3,1.58-.75,2.3-1L147,349"></path><path class="watermark-path" d="M186.76,337.57l-10.6-12.63,3.92,18.24-4.66,3.91-17.27-7,10.6,12.63-4.86,4.07-15.09-18,6.59-5.54,18.69,7.52-4.15-19.71,6.57-5.52,15.09,18-4.83,4.05"></path><path class="watermark-path" d="M208.84,313.24l-10,8.42,1.16,4.82L194.56,331l-5.68-25.89,5.42-4.55,24.51,10.09-5.42,4.55-4.55-2m-11.23,3.45,6.57-5.52-8.83-3.87,2.26,9.39"></path><path class="watermark-path" d="M227.49,281.38c-.48.12-1.09.31-1.82.57a24.37,24.37,0,0,0-2.4,1,26.11,26.11,0,0,0-2.7,1.47,20.72,20.72,0,0,0-2.71,1.94c-.7.59-1.28,1.11-1.74,1.57a13.39,13.39,0,0,0-1.1,1.22,4.29,4.29,0,0,0-.59.91,2.48,2.48,0,0,0-.22.65,1.16,1.16,0,0,0,0,.47,1.83,1.83,0,0,0,.18.29,1.15,1.15,0,0,0,1,.37,5.54,5.54,0,0,0,1.51-.38q.87-.34,2-.9l2.26-1.18q1.2-.64,2.49-1.29c.87-.44,1.73-.83,2.59-1.17a18.94,18.94,0,0,1,2.6-.81,9.27,9.27,0,0,1,2.46-.29,6.08,6.08,0,0,1,2.24.49,5.09,5.09,0,0,1,1.89,1.46,6.47,6.47,0,0,1,1.41,2.61,6.07,6.07,0,0,1,.09,2.61,8.3,8.3,0,0,1-.9,2.52,16.32,16.32,0,0,1-1.63,2.36,21.41,21.41,0,0,1-2,2.16c-.72.67-1.41,1.29-2.1,1.86a33.36,33.36,0,0,1-5.32,3.71,31.92,31.92,0,0,1-4.92,2.28l-3.6-4.3a21.38,21.38,0,0,0,5.39-1.87,27.2,27.2,0,0,0,5.4-3.56,21.59,21.59,0,0,0,2.38-2.27,8.67,8.67,0,0,0,1.18-1.7A2.32,2.32,0,0,0,231,293a1.34,1.34,0,0,0-.28-.74,1.21,1.21,0,0,0-1-.42,4.32,4.32,0,0,0-1.55.34,16.54,16.54,0,0,0-2,.88c-.71.37-1.47.77-2.26,1.21l-2.46,1.3c-.84.44-1.7.85-2.55,1.21a24.53,24.53,0,0,1-2.54.86A10,10,0,0,1,214,298a5.76,5.76,0,0,1-2.2-.45,5,5,0,0,1-1.89-1.45,6.12,6.12,0,0,1-1.31-2.41,5.78,5.78,0,0,1-.1-2.41,8,8,0,0,1,.81-2.38,14.61,14.61,0,0,1,1.49-2.25,22.26,22.26,0,0,1,1.85-2q1-1,2-1.77c.7-.59,1.44-1.15,2.23-1.7s1.62-1.06,2.44-1.53,1.63-.91,2.43-1.31,1.58-.74,2.3-1l3.5,4.16"></path><path class="watermark-path" d="M261.64,274.74l-6.29-7.5L243,277.61l6.3,7.5-4.86,4.07-15.09-18,4.85-4.08,5.49,6.55L252,263.3l-5.49-6.55,4.86-4.07,15.09,18-4.86,4.08"></path><path class="watermark-path" d="M272.18,265.9l-15.09-18,4.86-4.08,15.09,18-4.86,4.08"></path><path class="watermark-path" d="M299.65,242.85l-22.51-2.18L287.51,253l-4.85,4.08-15.1-18,5.28-4.43,22.56,2.22L285,224.5l4.83-4.06,15.09,18-5.26,4.42"></path><path class="watermark-path" d="M306.68,205.52a31.88,31.88,0,0,1,5.29-3.66,34.48,34.48,0,0,1,5.14-2.35l3.69,4.39a20.77,20.77,0,0,0-2.37.61,20.47,20.47,0,0,0-2.61,1,25.12,25.12,0,0,0-2.76,1.49,23.9,23.9,0,0,0-2.8,2,20.42,20.42,0,0,0-2.8,2.77,12.77,12.77,0,0,0-1.64,2.52,7,7,0,0,0-.68,2.24,6,6,0,0,0,.66,3.64,8.16,8.16,0,0,0,.94,1.38,9.12,9.12,0,0,0,1.08,1.07,6.39,6.39,0,0,0,1.47.91,6.73,6.73,0,0,0,1.88.48,6.54,6.54,0,0,0,2.28-.18,11.67,11.67,0,0,0,2.74-1.07,19.38,19.38,0,0,0,3.18-2.22c.57-.48,1.06-.92,1.46-1.31a14.57,14.57,0,0,0,1-1.13,11.46,11.46,0,0,0,.81-1.05l.74-1.09-1.82-2.17-5.45,4.57-3.31-3.94,10.31-8.65,7.71,9.19a29,29,0,0,1-1.67,2.43q-1,1.26-2.1,2.52c-.74.84-1.5,1.65-2.3,2.44s-1.58,1.5-2.33,2.14a31,31,0,0,1-3.59,2.61,22.55,22.55,0,0,1-3.64,1.83,15.64,15.64,0,0,1-3.63.89,10.72,10.72,0,0,1-3.49-.15,10.45,10.45,0,0,1-3.28-1.33,12.54,12.54,0,0,1-3-2.67,12,12,0,0,1-2.08-3.44,10.45,10.45,0,0,1-.71-3.5,11.14,11.14,0,0,1,.51-3.51,15.72,15.72,0,0,1,1.56-3.43,21.62,21.62,0,0,1,2.42-3.28,30.3,30.3,0,0,1,3.15-3"></path><path class="watermark-path" d="M336.91,211.59l-15.1-18,4.86-4.08,11.79,14,13.13-11,3.31,3.94-18,15.1"></path><path class="watermark-path" d="M374.54,164.71a12.28,12.28,0,0,1,2.59,4.81,10.44,10.44,0,0,1,0,5,14.62,14.62,0,0,1-2.33,5,25.55,25.55,0,0,1-4.56,4.85,26.07,26.07,0,0,1-5.6,3.67,14.79,14.79,0,0,1-5.38,1.43,10.43,10.43,0,0,1-4.94-.89,13.24,13.24,0,0,1-6.87-8.18,10.48,10.48,0,0,1,0-5,14.51,14.51,0,0,1,2.36-5,25.23,25.23,0,0,1,4.57-4.89,25,25,0,0,1,5.59-3.64,14.45,14.45,0,0,1,5.35-1.43,10.31,10.31,0,0,1,4.93.92,12.22,12.22,0,0,1,4.28,3.38m-4.91,4.11a8.36,8.36,0,0,0-2-1.72,5.5,5.5,0,0,0-2.65-.85,7.72,7.72,0,0,0-3.32.57,14.49,14.49,0,0,0-4,2.52,16.72,16.72,0,0,0-2.38,2.4,10.15,10.15,0,0,0-1.39,2.24,6.71,6.71,0,0,0-.56,2.1,5.69,5.69,0,0,0,.1,1.9,6.21,6.21,0,0,0,.61,1.69,9.85,9.85,0,0,0,1,1.44,10.48,10.48,0,0,0,1.26,1.23,6.67,6.67,0,0,0,1.57.92,6.1,6.1,0,0,0,1.85.41,6.8,6.8,0,0,0,2.15-.2,11.06,11.06,0,0,0,2.45-1,17.67,17.67,0,0,0,2.77-1.94,14.39,14.39,0,0,0,3.18-3.52,7.74,7.74,0,0,0,1.14-3.17,5.54,5.54,0,0,0-.37-2.74,8.52,8.52,0,0,0-1.36-2.3"></path><path class="watermark-path" d="M382.66,141.76A32.3,32.3,0,0,1,388,138.1a34.12,34.12,0,0,1,5.15-2.35l3.69,4.4a19.62,19.62,0,0,0-2.37.6,22.08,22.08,0,0,0-2.61,1,26,26,0,0,0-2.77,1.49,23.9,23.9,0,0,0-2.8,2,21,21,0,0,0-2.8,2.78,13.19,13.19,0,0,0-1.64,2.51,7.29,7.29,0,0,0-.68,2.24,6.36,6.36,0,0,0,.06,2,5.8,5.8,0,0,0,.61,1.68,8.12,8.12,0,0,0,.93,1.38,9.16,9.16,0,0,0,1.08,1.08,6.56,6.56,0,0,0,1.48.9,6,6,0,0,0,1.87.48,6.76,6.76,0,0,0,2.28-.17,12,12,0,0,0,2.74-1.08,18.57,18.57,0,0,0,3.18-2.22c.58-.48,1.06-.92,1.46-1.31s.75-.77,1.05-1.12.57-.72.81-1.06l.73-1.09-1.82-2.17-5.45,4.57-3.3-3.94,10.3-8.65,7.71,9.19a29,29,0,0,1-1.67,2.43q-1,1.26-2.1,2.52c-.73.84-1.5,1.66-2.3,2.44s-1.57,1.5-2.33,2.14a31,31,0,0,1-3.59,2.61,22.15,22.15,0,0,1-3.64,1.83,15.56,15.56,0,0,1-3.62.89,11,11,0,0,1-3.49-.14,10.84,10.84,0,0,1-3.28-1.33,12.82,12.82,0,0,1-3-2.68,12.12,12.12,0,0,1-2.08-3.43A10.71,10.71,0,0,1,375,155a11.18,11.18,0,0,1,.51-3.51,15.51,15.51,0,0,1,1.57-3.43,21.44,21.44,0,0,1,2.42-3.28,30.19,30.19,0,0,1,3.14-3"></path><path class="watermark-path" d="M428.63,119.31a12.26,12.26,0,0,1,2.59,4.82,10.44,10.44,0,0,1,0,5,14.53,14.53,0,0,1-2.34,5,25.29,25.29,0,0,1-4.56,4.86,26,26,0,0,1-5.59,3.67,14.84,14.84,0,0,1-5.38,1.43,10.61,10.61,0,0,1-4.95-.89,12.15,12.15,0,0,1-4.3-3.37,12,12,0,0,1-2.56-4.81,10.48,10.48,0,0,1,0-5,14.39,14.39,0,0,1,2.35-5,27.89,27.89,0,0,1,10.16-8.53,14.49,14.49,0,0,1,5.36-1.43,10.27,10.27,0,0,1,4.92.92,12.21,12.21,0,0,1,4.28,3.37m-4.91,4.12a8.17,8.17,0,0,0-2-1.72,5.58,5.58,0,0,0-2.65-.86,7.86,7.86,0,0,0-3.31.58,14.49,14.49,0,0,0-4,2.52,16.21,16.21,0,0,0-2.38,2.4,9.85,9.85,0,0,0-1.4,2.24,7,7,0,0,0-.56,2.1,6,6,0,0,0,.1,1.9,6.23,6.23,0,0,0,.62,1.69,8.49,8.49,0,0,0,1,1.44,9.18,9.18,0,0,0,1.26,1.23,6.67,6.67,0,0,0,1.57.92,6,6,0,0,0,1.84.41,6.86,6.86,0,0,0,2.16-.2,11.26,11.26,0,0,0,2.45-1,17.62,17.62,0,0,0,2.76-1.94,14.67,14.67,0,0,0,3.19-3.52,7.71,7.71,0,0,0,1.13-3.17,5.53,5.53,0,0,0-.36-2.74,8.55,8.55,0,0,0-1.37-2.3"></path></g><rect data-element-id="element-id-65147" stroke-width="2" fill="transparent" class="invisible-element-box grouping-element" x="193" y="120" width="164" height="142" data-element-name="isIcon"></rect><rect data-element-id="element-id-35473" stroke-width="2" fill="transparent" class="invisible-element-box individual-element" x="193" y="120" width="164" height="142"></rect><rect data-element-id="element-id-51788" stroke-width="2" fill="transparent" class="invisible-element-box individual-element" x="193" y="120" width="164" height="142"></rect><rect data-element-id="element-id-62058" stroke-width="2" fill="transparent" class="invisible-element-box grouping-element" x="65" y="288" width="420" height="33" data-element-name="isPrimaryText"></rect><rect data-element-id="element-id-9300" stroke-width="2" fill="transparent" class="invisible-element-box individual-element" x="228" y="149" width="93" height="84"></rect><rect data-element-id="element-id-40306" stroke-width="2" fill="transparent" class="invisible-element-box grouping-element" x="82" y="332" width="386" height="18" data-element-name="isSecondaryText"></rect><rect data-element-id="element-id-74082" stroke-width="2" fill="transparent" class="invisible-element-box individual-element" x="266" y="288" width="31" height="33"></rect><rect data-element-id="element-id-26124" stroke-width="2" fill="transparent" class="invisible-element-box individual-element" x="424" y="288" width="31" height="33"></rect><rect data-element-id="element-id-61127" stroke-width="2" fill="transparent" class="invisible-element-box individual-element" x="121" y="288" width="30" height="33"></rect><rect data-element-id="element-id-43379" stroke-width="2" fill="transparent" class="invisible-element-box individual-element" x="352" y="288" width="30" height="33"></rect><rect data-element-id="element-id-97905" stroke-width="2" fill="transparent" class="invisible-element-box individual-element" x="193" y="289" width="29" height="32"></rect><rect data-element-id="element-id-51853" stroke-width="2" fill="transparent" class="invisible-element-box individual-element" x="460" y="289" width="25" height="32"></rect><rect data-element-id="element-id-67854" stroke-width="2" fill="transparent" class="invisible-element-box individual-element" x="65" y="289" width="24" height="32"></rect><rect data-element-id="element-id-70100" stroke-width="2" fill="transparent" class="invisible-element-box individual-element" x="324" y="289" width="24" height="32"></rect><rect data-element-id="element-id-24357" stroke-width="2" fill="transparent" class="invisible-element-box individual-element" x="239" y="288" width="23" height="33"></rect><rect data-element-id="element-id-87573" stroke-width="2" fill="transparent" class="invisible-element-box individual-element" x="94" y="289" width="22" height="32"></rect><rect data-element-id="element-id-10944" stroke-width="2" fill="transparent" class="invisible-element-box individual-element" x="386" y="289" width="22" height="32"></rect><rect data-element-id="element-id-1145" stroke-width="2" fill="transparent" class="invisible-element-box individual-element" x="167" y="289" width="21" height="32"></rect><rect data-element-id="element-id-8653" stroke-width="2" fill="transparent" class="invisible-element-box individual-element" x="290" y="149" width="32" height="21"></rect><rect data-element-id="element-id-55339" stroke-width="2" fill="transparent" class="invisible-element-box individual-element" x="302" y="289" width="17" height="32"></rect><rect data-element-id="element-id-91543" stroke-width="2" fill="transparent" class="invisible-element-box individual-element" x="413" y="289" width="7" height="32"></rect><rect data-element-id="element-id-35935" stroke-width="2" fill="transparent" class="invisible-element-box individual-element" x="433" y="332" width="11" height="15"></rect><rect data-element-id="element-id-33112" stroke-width="2" fill="transparent" class="invisible-element-box individual-element" x="410" y="335" width="10" height="15"></rect><rect data-element-id="element-id-5645" stroke-width="2" fill="transparent" class="invisible-element-box individual-element" x="166" y="335" width="13" height="11"></rect><rect data-element-id="element-id-35238" stroke-width="2" fill="transparent" class="invisible-element-box individual-element" x="259" y="335" width="11" height="12"></rect><rect data-element-id="element-id-92046" stroke-width="2" fill="transparent" class="invisible-element-box individual-element" x="342" y="335" width="11" height="12"></rect><rect data-element-id="element-id-35643" stroke-width="2" fill="transparent" class="invisible-element-box individual-element" x="457" y="335" width="11" height="12"></rect><rect data-element-id="element-id-15973" stroke-width="2" fill="transparent" class="invisible-element-box individual-element" x="127" y="335" width="11" height="11"></rect><rect data-element-id="element-id-48557" stroke-width="2" fill="transparent" class="invisible-element-box individual-element" x="105" y="335" width="10" height="12"></rect><rect data-element-id="element-id-28496" stroke-width="2" fill="transparent" class="invisible-element-box individual-element" x="387" y="335" width="10" height="12"></rect><rect data-element-id="element-id-64170" stroke-width="2" fill="transparent" class="invisible-element-box individual-element" x="235" y="335" width="10" height="11"></rect><rect data-element-id="element-id-76423" stroke-width="2" fill="transparent" class="invisible-element-box individual-element" x="82" y="335" width="9" height="12"></rect><rect data-element-id="element-id-68852" stroke-width="2" fill="transparent" class="invisible-element-box individual-element" x="319" y="335" width="9" height="12"></rect><rect data-element-id="element-id-10889" stroke-width="2" fill="transparent" class="invisible-element-box individual-element" x="284" y="335" width="9" height="11"></rect><rect data-element-id="element-id-79621" stroke-width="2" fill="transparent" class="invisible-element-box individual-element" x="194" y="335" width="8" height="11"></rect><rect data-element-id="element-id-56523" stroke-width="2" fill="transparent" class="invisible-element-box individual-element" x="215" y="335" width="8" height="11"></rect><rect data-element-id="element-id-63265" stroke-width="2" fill="transparent" class="invisible-element-box individual-element" x="366" y="335" width="8" height="11"></rect></svg>
